<mxfile host="app.diagrams.net" modified="2023-10-23T17:15:11.457Z" agent="Mozilla/5.0 (X11; Linux x86_64) AppleWebKit/537.36 (KHTML, like Gecko) Chrome/116.0.0.0 Safari/537.36" etag="I1OYR_JIkUhv7xogWHRi" version="22.0.6" type="github">
  <diagram name="PÃ¡gina-1" id="t2g9kF5NyH21QePsNLsv">
    <mxGraphModel dx="1989" dy="971" grid="1" gridSize="10" guides="1" tooltips="1" connect="1" arrows="1" fold="1" page="1" pageScale="1" pageWidth="827" pageHeight="1169" math="0" shadow="0">
      <root>
        <mxCell id="0" />
        <mxCell id="1" parent="0" />
        <mxCell id="T78mUZQ_ImGaSq49bOtu-1" value="" style="rounded=0;whiteSpace=wrap;html=1;" vertex="1" parent="1">
          <mxGeometry x="90" y="80" width="270" height="160" as="geometry" />
        </mxCell>
      </root>
    </mxGraphModel>
  </diagram>
</mxfile>
